<mxfile host="app.diagrams.net" modified="2024-05-13T23:27:23.399Z" agent="Mozilla/5.0 (Windows NT 10.0; Win64; x64) AppleWebKit/537.36 (KHTML, like Gecko) Chrome/124.0.0.0 Safari/537.36" etag="1dFTDPjEkKycMUYKF2zn" version="24.4.0" type="device">
  <diagram name="PÃ¡gina-1" id="DTbTGqSyRe9w-utKM-nX">
    <mxGraphModel dx="2117" dy="653" grid="1" gridSize="10" guides="1" tooltips="1" connect="1" arrows="1" fold="1" page="1" pageScale="1" pageWidth="827" pageHeight="1169" math="0" shadow="0">
      <root>
        <mxCell id="0" />
        <mxCell id="1" parent="0" />
        <mxCell id="mOIb3fwv_jffF5QqFuDj-4" value="" style="edgeStyle=orthogonalEdgeStyle;rounded=0;orthogonalLoop=1;jettySize=auto;html=1;" edge="1" parent="1" source="mOIb3fwv_jffF5QqFuDj-1" target="mOIb3fwv_jffF5QqFuDj-3">
          <mxGeometry relative="1" as="geometry" />
        </mxCell>
        <mxCell id="mOIb3fwv_jffF5QqFuDj-1" value="Algoritmo Practico ejer 9" style="ellipse;whiteSpace=wrap;html=1;" vertex="1" parent="1">
          <mxGeometry x="320" y="30" width="156" height="80" as="geometry" />
        </mxCell>
        <mxCell id="mOIb3fwv_jffF5QqFuDj-2" value="definir total = 0" style="rounded=0;whiteSpace=wrap;html=1;" vertex="1" parent="1">
          <mxGeometry x="338" y="240" width="120" height="60" as="geometry" />
        </mxCell>
        <mxCell id="mOIb3fwv_jffF5QqFuDj-5" value="" style="edgeStyle=orthogonalEdgeStyle;rounded=0;orthogonalLoop=1;jettySize=auto;html=1;" edge="1" parent="1" source="mOIb3fwv_jffF5QqFuDj-3" target="mOIb3fwv_jffF5QqFuDj-2">
          <mxGeometry relative="1" as="geometry" />
        </mxCell>
        <mxCell id="mOIb3fwv_jffF5QqFuDj-3" value="entrada s" style="rounded=0;whiteSpace=wrap;html=1;" vertex="1" parent="1">
          <mxGeometry x="338" y="150" width="120" height="60" as="geometry" />
        </mxCell>
        <mxCell id="mOIb3fwv_jffF5QqFuDj-33" style="edgeStyle=orthogonalEdgeStyle;rounded=0;orthogonalLoop=1;jettySize=auto;html=1;exitX=0.5;exitY=1;exitDx=0;exitDy=0;" edge="1" parent="1" source="mOIb3fwv_jffF5QqFuDj-6">
          <mxGeometry relative="1" as="geometry">
            <mxPoint x="398" y="400" as="targetPoint" />
          </mxGeometry>
        </mxCell>
        <mxCell id="mOIb3fwv_jffF5QqFuDj-6" value="definir i = 0" style="rounded=0;whiteSpace=wrap;html=1;" vertex="1" parent="1">
          <mxGeometry x="338" y="320" width="120" height="60" as="geometry" />
        </mxCell>
        <mxCell id="mOIb3fwv_jffF5QqFuDj-29" style="edgeStyle=orthogonalEdgeStyle;rounded=0;orthogonalLoop=1;jettySize=auto;html=1;exitX=1;exitY=0.5;exitDx=0;exitDy=0;" edge="1" parent="1" source="mOIb3fwv_jffF5QqFuDj-7" target="mOIb3fwv_jffF5QqFuDj-8">
          <mxGeometry relative="1" as="geometry" />
        </mxCell>
        <mxCell id="mOIb3fwv_jffF5QqFuDj-30" style="edgeStyle=orthogonalEdgeStyle;rounded=0;orthogonalLoop=1;jettySize=auto;html=1;exitX=0;exitY=0.5;exitDx=0;exitDy=0;" edge="1" parent="1" source="mOIb3fwv_jffF5QqFuDj-7" target="mOIb3fwv_jffF5QqFuDj-14">
          <mxGeometry relative="1" as="geometry" />
        </mxCell>
        <mxCell id="mOIb3fwv_jffF5QqFuDj-7" value="&#xa;&lt;div style=&quot;color: #3b3b3b;background-color: #ffffff;font-family: Consolas, &#39;Courier New&#39;, monospace;font-weight: normal;font-size: 14px;line-height: 19px;white-space: pre;&quot;&gt;&lt;div&gt;&lt;span style=&quot;color: #3b3b3b;&quot;&gt;i &lt;/span&gt;&lt;span style=&quot;color: #000000;&quot;&gt;&amp;lt;=&lt;/span&gt;&lt;span style=&quot;color: #3b3b3b;&quot;&gt; &lt;/span&gt;&lt;span style=&quot;color: #001080;&quot;&gt;s&lt;/span&gt;&lt;span style=&quot;color: #3b3b3b;&quot;&gt;.&lt;/span&gt;&lt;span style=&quot;color: #795e26;&quot;&gt;size&lt;/span&gt;&lt;span style=&quot;color: #3b3b3b;&quot;&gt;()&lt;/span&gt;&lt;/div&gt;&lt;/div&gt;&#xa;&#xa;" style="rhombus;whiteSpace=wrap;html=1;" vertex="1" parent="1">
          <mxGeometry x="324" y="400" width="152" height="80" as="geometry" />
        </mxCell>
        <mxCell id="mOIb3fwv_jffF5QqFuDj-31" value="" style="edgeStyle=orthogonalEdgeStyle;rounded=0;orthogonalLoop=1;jettySize=auto;html=1;" edge="1" parent="1" source="mOIb3fwv_jffF5QqFuDj-8" target="mOIb3fwv_jffF5QqFuDj-9">
          <mxGeometry relative="1" as="geometry" />
        </mxCell>
        <mxCell id="mOIb3fwv_jffF5QqFuDj-8" value="definir char&amp;nbsp;&lt;span style=&quot;background-color: rgb(255, 255, 255); color: rgb(59, 59, 59); font-family: Consolas, &amp;quot;Courier New&amp;quot;, monospace; font-size: 14px; white-space: pre;&quot;&gt;caracter &lt;/span&gt;&lt;span style=&quot;font-family: Consolas, &amp;quot;Courier New&amp;quot;, monospace; font-size: 14px; white-space: pre;&quot;&gt;=&lt;/span&gt;&lt;span style=&quot;background-color: rgb(255, 255, 255); color: rgb(59, 59, 59); font-family: Consolas, &amp;quot;Courier New&amp;quot;, monospace; font-size: 14px; white-space: pre;&quot;&gt; &lt;/span&gt;&lt;span style=&quot;font-family: Consolas, &amp;quot;Courier New&amp;quot;, monospace; font-size: 14px; white-space: pre; color: rgb(0, 16, 128);&quot;&gt;s&lt;/span&gt;&lt;span style=&quot;background-color: rgb(255, 255, 255); color: rgb(59, 59, 59); font-family: Consolas, &amp;quot;Courier New&amp;quot;, monospace; font-size: 14px; white-space: pre;&quot;&gt;[i]&lt;/span&gt;" style="rounded=0;whiteSpace=wrap;html=1;" vertex="1" parent="1">
          <mxGeometry x="480" y="490" width="240" height="60" as="geometry" />
        </mxCell>
        <mxCell id="mOIb3fwv_jffF5QqFuDj-24" style="edgeStyle=orthogonalEdgeStyle;rounded=0;orthogonalLoop=1;jettySize=auto;html=1;exitX=1;exitY=0.5;exitDx=0;exitDy=0;" edge="1" parent="1" source="mOIb3fwv_jffF5QqFuDj-9" target="mOIb3fwv_jffF5QqFuDj-10">
          <mxGeometry relative="1" as="geometry" />
        </mxCell>
        <mxCell id="mOIb3fwv_jffF5QqFuDj-28" value="V" style="edgeLabel;html=1;align=center;verticalAlign=middle;resizable=0;points=[];" vertex="1" connectable="0" parent="mOIb3fwv_jffF5QqFuDj-24">
          <mxGeometry x="0.2571" y="-2" relative="1" as="geometry">
            <mxPoint as="offset" />
          </mxGeometry>
        </mxCell>
        <mxCell id="mOIb3fwv_jffF5QqFuDj-36" style="edgeStyle=orthogonalEdgeStyle;rounded=0;orthogonalLoop=1;jettySize=auto;html=1;exitX=0;exitY=0.5;exitDx=0;exitDy=0;" edge="1" parent="1" source="mOIb3fwv_jffF5QqFuDj-9">
          <mxGeometry relative="1" as="geometry">
            <mxPoint x="620" y="920" as="targetPoint" />
            <Array as="points">
              <mxPoint x="515" y="620" />
              <mxPoint x="515" y="830" />
              <mxPoint x="561" y="830" />
            </Array>
          </mxGeometry>
        </mxCell>
        <mxCell id="mOIb3fwv_jffF5QqFuDj-9" value="&lt;br&gt;&lt;div style=&quot;color: #3b3b3b;background-color: #ffffff;font-family: Consolas, &#39;Courier New&#39;, monospace;font-weight: normal;font-size: 14px;line-height: 19px;white-space: pre;&quot;&gt;&lt;div&gt;&lt;span style=&quot;color: #3b3b3b;&quot;&gt;caracter &lt;/span&gt;&lt;span style=&quot;color: #000000;&quot;&gt;=&lt;/span&gt;&lt;span style=&quot;color: #3b3b3b;&quot;&gt; &lt;/span&gt;&lt;span style=&quot;color: #a31515;&quot;&gt;&#39;f&#39;&lt;/span&gt;&lt;/div&gt;&lt;/div&gt;&lt;div&gt;&lt;br/&gt;&lt;/div&gt;" style="rhombus;whiteSpace=wrap;html=1;" vertex="1" parent="1">
          <mxGeometry x="535" y="580" width="130" height="80" as="geometry" />
        </mxCell>
        <mxCell id="mOIb3fwv_jffF5QqFuDj-25" value="" style="edgeStyle=orthogonalEdgeStyle;rounded=0;orthogonalLoop=1;jettySize=auto;html=1;" edge="1" parent="1" source="mOIb3fwv_jffF5QqFuDj-10" target="mOIb3fwv_jffF5QqFuDj-11">
          <mxGeometry relative="1" as="geometry" />
        </mxCell>
        <mxCell id="mOIb3fwv_jffF5QqFuDj-10" value="&#xa;&lt;div style=&quot;color: #3b3b3b;background-color: #ffffff;font-family: Consolas, &#39;Courier New&#39;, monospace;font-weight: normal;font-size: 14px;line-height: 19px;white-space: pre;&quot;&gt;&lt;div&gt;&lt;span style=&quot;color: #3b3b3b;&quot;&gt;total &lt;/span&gt;&lt;span style=&quot;color: #000000;&quot;&gt;=&lt;/span&gt;&lt;span style=&quot;color: #3b3b3b;&quot;&gt; total &lt;/span&gt;&lt;span style=&quot;color: #000000;&quot;&gt;+&lt;/span&gt;&lt;span style=&quot;color: #3b3b3b;&quot;&gt; &lt;/span&gt;&lt;span style=&quot;color: #098658;&quot;&gt;1&lt;/span&gt;&lt;/div&gt;&lt;/div&gt;&#xa;&#xa;" style="rounded=0;whiteSpace=wrap;html=1;" vertex="1" parent="1">
          <mxGeometry x="680" y="690" width="180" height="60" as="geometry" />
        </mxCell>
        <mxCell id="mOIb3fwv_jffF5QqFuDj-26" style="edgeStyle=orthogonalEdgeStyle;rounded=0;orthogonalLoop=1;jettySize=auto;html=1;exitX=1;exitY=0.5;exitDx=0;exitDy=0;entryX=0.5;entryY=0;entryDx=0;entryDy=0;" edge="1" parent="1" source="mOIb3fwv_jffF5QqFuDj-11" target="mOIb3fwv_jffF5QqFuDj-13">
          <mxGeometry relative="1" as="geometry" />
        </mxCell>
        <mxCell id="mOIb3fwv_jffF5QqFuDj-27" value="V" style="edgeLabel;html=1;align=center;verticalAlign=middle;resizable=0;points=[];" vertex="1" connectable="0" parent="mOIb3fwv_jffF5QqFuDj-26">
          <mxGeometry x="0.2033" y="1" relative="1" as="geometry">
            <mxPoint as="offset" />
          </mxGeometry>
        </mxCell>
        <mxCell id="mOIb3fwv_jffF5QqFuDj-34" style="edgeStyle=orthogonalEdgeStyle;rounded=0;orthogonalLoop=1;jettySize=auto;html=1;exitX=0;exitY=0.5;exitDx=0;exitDy=0;entryX=0.5;entryY=0;entryDx=0;entryDy=0;" edge="1" parent="1" source="mOIb3fwv_jffF5QqFuDj-11" target="mOIb3fwv_jffF5QqFuDj-7">
          <mxGeometry relative="1" as="geometry">
            <Array as="points">
              <mxPoint x="620" y="850" />
              <mxPoint x="620" y="990" />
              <mxPoint x="1030" y="990" />
              <mxPoint x="1030" y="390" />
              <mxPoint x="400" y="390" />
            </Array>
          </mxGeometry>
        </mxCell>
        <mxCell id="mOIb3fwv_jffF5QqFuDj-35" value="F" style="edgeLabel;html=1;align=center;verticalAlign=middle;resizable=0;points=[];" vertex="1" connectable="0" parent="mOIb3fwv_jffF5QqFuDj-34">
          <mxGeometry x="-0.9215" y="-2" relative="1" as="geometry">
            <mxPoint as="offset" />
          </mxGeometry>
        </mxCell>
        <mxCell id="mOIb3fwv_jffF5QqFuDj-42" value="i&amp;nbsp; = i + 1&amp;nbsp;" style="edgeLabel;html=1;align=center;verticalAlign=middle;resizable=0;points=[];" vertex="1" connectable="0" parent="mOIb3fwv_jffF5QqFuDj-34">
          <mxGeometry x="0.048" y="-4" relative="1" as="geometry">
            <mxPoint as="offset" />
          </mxGeometry>
        </mxCell>
        <mxCell id="mOIb3fwv_jffF5QqFuDj-11" value="&lt;br&gt;&lt;div style=&quot;color: #3b3b3b;background-color: #ffffff;font-family: Consolas, &#39;Courier New&#39;, monospace;font-weight: normal;font-size: 14px;line-height: 19px;white-space: pre;&quot;&gt;&lt;div&gt;&lt;span style=&quot;color: #3b3b3b;&quot;&gt;total &lt;/span&gt;&lt;span style=&quot;color: #000000;&quot;&gt;=&lt;/span&gt;&lt;span style=&quot;color: #3b3b3b;&quot;&gt; &lt;/span&gt;&lt;span style=&quot;color: #098658;&quot;&gt;2&lt;/span&gt;&lt;/div&gt;&lt;/div&gt;&lt;div&gt;&lt;br/&gt;&lt;/div&gt;" style="rhombus;whiteSpace=wrap;html=1;" vertex="1" parent="1">
          <mxGeometry x="690" y="810" width="160" height="80" as="geometry" />
        </mxCell>
        <mxCell id="mOIb3fwv_jffF5QqFuDj-38" style="edgeStyle=orthogonalEdgeStyle;rounded=0;orthogonalLoop=1;jettySize=auto;html=1;exitX=0.5;exitY=1;exitDx=0;exitDy=0;entryX=0.5;entryY=0;entryDx=0;entryDy=0;" edge="1" parent="1" source="mOIb3fwv_jffF5QqFuDj-13" target="mOIb3fwv_jffF5QqFuDj-14">
          <mxGeometry relative="1" as="geometry">
            <Array as="points">
              <mxPoint x="930" y="1020" />
              <mxPoint x="380" y="1020" />
              <mxPoint x="380" y="480" />
              <mxPoint x="215" y="480" />
            </Array>
          </mxGeometry>
        </mxCell>
        <mxCell id="mOIb3fwv_jffF5QqFuDj-13" value="mostrar i" style="shape=parallelogram;perimeter=parallelogramPerimeter;whiteSpace=wrap;html=1;fixedSize=1;" vertex="1" parent="1">
          <mxGeometry x="870" y="890" width="120" height="60" as="geometry" />
        </mxCell>
        <mxCell id="mOIb3fwv_jffF5QqFuDj-18" style="edgeStyle=orthogonalEdgeStyle;rounded=0;orthogonalLoop=1;jettySize=auto;html=1;exitX=1;exitY=0.5;exitDx=0;exitDy=0;" edge="1" parent="1" source="mOIb3fwv_jffF5QqFuDj-14" target="mOIb3fwv_jffF5QqFuDj-16">
          <mxGeometry relative="1" as="geometry" />
        </mxCell>
        <mxCell id="mOIb3fwv_jffF5QqFuDj-21" value="V" style="edgeLabel;html=1;align=center;verticalAlign=middle;resizable=0;points=[];" vertex="1" connectable="0" parent="mOIb3fwv_jffF5QqFuDj-18">
          <mxGeometry x="-0.2" y="4" relative="1" as="geometry">
            <mxPoint x="-4" y="-4" as="offset" />
          </mxGeometry>
        </mxCell>
        <mxCell id="mOIb3fwv_jffF5QqFuDj-19" style="edgeStyle=orthogonalEdgeStyle;rounded=0;orthogonalLoop=1;jettySize=auto;html=1;exitX=0;exitY=0.5;exitDx=0;exitDy=0;entryX=0.5;entryY=0;entryDx=0;entryDy=0;" edge="1" parent="1" source="mOIb3fwv_jffF5QqFuDj-14" target="mOIb3fwv_jffF5QqFuDj-15">
          <mxGeometry relative="1" as="geometry" />
        </mxCell>
        <mxCell id="mOIb3fwv_jffF5QqFuDj-22" value="F" style="edgeLabel;html=1;align=center;verticalAlign=middle;resizable=0;points=[];" vertex="1" connectable="0" parent="mOIb3fwv_jffF5QqFuDj-19">
          <mxGeometry x="0.136" y="-2" relative="1" as="geometry">
            <mxPoint as="offset" />
          </mxGeometry>
        </mxCell>
        <mxCell id="mOIb3fwv_jffF5QqFuDj-14" value="&lt;br&gt;&lt;div style=&quot;color: #3b3b3b;background-color: #ffffff;font-family: Consolas, &#39;Courier New&#39;, monospace;font-weight: normal;font-size: 14px;line-height: 19px;white-space: pre;&quot;&gt;&lt;div&gt;&lt;span style=&quot;color: #3b3b3b;&quot;&gt;total &lt;/span&gt;&lt;span style=&quot;color: #000000;&quot;&gt;=&lt;/span&gt;&lt;span style=&quot;color: #3b3b3b;&quot;&gt; &lt;/span&gt;&lt;span style=&quot;color: #098658;&quot;&gt;1&lt;/span&gt;&lt;/div&gt;&lt;/div&gt;&lt;div&gt;&lt;br/&gt;&lt;/div&gt;" style="rhombus;whiteSpace=wrap;html=1;" vertex="1" parent="1">
          <mxGeometry x="160" y="490" width="110" height="80" as="geometry" />
        </mxCell>
        <mxCell id="mOIb3fwv_jffF5QqFuDj-20" style="edgeStyle=orthogonalEdgeStyle;rounded=0;orthogonalLoop=1;jettySize=auto;html=1;exitX=0;exitY=0.5;exitDx=0;exitDy=0;" edge="1" parent="1" source="mOIb3fwv_jffF5QqFuDj-15" target="mOIb3fwv_jffF5QqFuDj-17">
          <mxGeometry relative="1" as="geometry" />
        </mxCell>
        <mxCell id="mOIb3fwv_jffF5QqFuDj-23" value="F" style="edgeLabel;html=1;align=center;verticalAlign=middle;resizable=0;points=[];" vertex="1" connectable="0" parent="mOIb3fwv_jffF5QqFuDj-20">
          <mxGeometry x="-0.1429" y="-5" relative="1" as="geometry">
            <mxPoint as="offset" />
          </mxGeometry>
        </mxCell>
        <mxCell id="mOIb3fwv_jffF5QqFuDj-40" style="edgeStyle=orthogonalEdgeStyle;rounded=0;orthogonalLoop=1;jettySize=auto;html=1;exitX=1;exitY=0.5;exitDx=0;exitDy=0;" edge="1" parent="1" source="mOIb3fwv_jffF5QqFuDj-15" target="mOIb3fwv_jffF5QqFuDj-37">
          <mxGeometry relative="1" as="geometry">
            <Array as="points">
              <mxPoint x="140" y="760" />
              <mxPoint x="290" y="760" />
            </Array>
          </mxGeometry>
        </mxCell>
        <mxCell id="mOIb3fwv_jffF5QqFuDj-15" value="&lt;br&gt;&lt;div style=&quot;color: #3b3b3b;background-color: #ffffff;font-family: Consolas, &#39;Courier New&#39;, monospace;font-weight: normal;font-size: 14px;line-height: 19px;white-space: pre;&quot;&gt;&lt;div&gt;&lt;span style=&quot;color: #3b3b3b;&quot;&gt;total &lt;/span&gt;&lt;span style=&quot;color: #000000;&quot;&gt;=&lt;/span&gt;&lt;span style=&quot;color: #3b3b3b;&quot;&gt; &lt;/span&gt;&lt;span style=&quot;color: #098658;&quot;&gt;0&lt;/span&gt;&lt;/div&gt;&lt;/div&gt;&lt;div&gt;&lt;br/&gt;&lt;/div&gt;" style="rhombus;whiteSpace=wrap;html=1;" vertex="1" parent="1">
          <mxGeometry x="60" y="570" width="80" height="80" as="geometry" />
        </mxCell>
        <mxCell id="mOIb3fwv_jffF5QqFuDj-39" style="edgeStyle=orthogonalEdgeStyle;rounded=0;orthogonalLoop=1;jettySize=auto;html=1;exitX=0.5;exitY=1;exitDx=0;exitDy=0;" edge="1" parent="1" source="mOIb3fwv_jffF5QqFuDj-16" target="mOIb3fwv_jffF5QqFuDj-37">
          <mxGeometry relative="1" as="geometry" />
        </mxCell>
        <mxCell id="mOIb3fwv_jffF5QqFuDj-16" value="mostrar&lt;span style=&quot;background-color: rgb(255, 255, 255); color: rgb(59, 59, 59); font-family: Consolas, &amp;quot;Courier New&amp;quot;, monospace; font-size: 14px; white-space: pre;&quot;&gt;&amp;nbsp;&lt;/span&gt;&lt;span style=&quot;font-family: Consolas, &amp;quot;Courier New&amp;quot;, monospace; font-size: 14px; white-space: pre; color: rgb(163, 21, 21);&quot;&gt;&quot;-1&quot;&lt;/span&gt;" style="shape=parallelogram;perimeter=parallelogramPerimeter;whiteSpace=wrap;html=1;fixedSize=1;" vertex="1" parent="1">
          <mxGeometry x="250" y="590" width="120" height="60" as="geometry" />
        </mxCell>
        <mxCell id="mOIb3fwv_jffF5QqFuDj-41" style="edgeStyle=orthogonalEdgeStyle;rounded=0;orthogonalLoop=1;jettySize=auto;html=1;exitX=0.5;exitY=1;exitDx=0;exitDy=0;" edge="1" parent="1" source="mOIb3fwv_jffF5QqFuDj-17" target="mOIb3fwv_jffF5QqFuDj-37">
          <mxGeometry relative="1" as="geometry" />
        </mxCell>
        <mxCell id="mOIb3fwv_jffF5QqFuDj-17" value="mostrar&amp;nbsp;&amp;nbsp;&lt;span style=&quot;color: rgb(163, 21, 21); background-color: rgb(255, 255, 255); font-family: Consolas, &amp;quot;Courier New&amp;quot;, monospace; font-size: 14px; white-space: pre;&quot;&gt;&quot;-2&quot;&lt;/span&gt;&lt;div&gt;&lt;br&gt;&lt;/div&gt;" style="shape=parallelogram;perimeter=parallelogramPerimeter;whiteSpace=wrap;html=1;fixedSize=1;" vertex="1" parent="1">
          <mxGeometry x="-60" y="670" width="150" height="60" as="geometry" />
        </mxCell>
        <mxCell id="mOIb3fwv_jffF5QqFuDj-37" value="FinAlgoritmo" style="ellipse;whiteSpace=wrap;html=1;" vertex="1" parent="1">
          <mxGeometry x="230" y="860" width="120" height="80" as="geometry" />
        </mxCell>
      </root>
    </mxGraphModel>
  </diagram>
</mxfile>
